<svg width="960" height="1080" viewBox="0 0 960 1080" fill="none" xmlns="http://www.w3.org/2000/svg">
<g clip-path="url(#clip0_22_2159)">
<path d="M722.5 719.29C722.5 819.068 641.631 899.956 541.875 899.956V719.29H722.5Z" fill="#FF743C"/>
<path d="M541.875 1080.62C442.119 1080.62 361.25 999.735 361.25 899.956H541.875V1080.62Z" fill="#FF743C"/>
<path d="M903.125 899.956C903.125 999.735 822.256 1080.62 722.5 1080.62V899.956H903.125Z" fill="#F0F1F1"/>
<path d="M0 899.956C0 800.178 80.8685 719.29 180.625 719.29V899.956H0Z" fill="#FF743C"/>
<path d="M903.125 357.956C1002.88 357.956 1083.75 438.844 1083.75 538.623H903.125V357.956Z" fill="#D5E155"/>
<path d="M541.875 -4C541.875 95.7786 461.006 176.667 361.25 176.667V-4L541.875 -4Z" fill="#FF743C"/>
<path d="M541.875 899.956C442.118 899.956 361.25 819.068 361.25 719.29H541.875V899.956Z" fill="#2D3652"/>
<path d="M541.875 811.492C490.964 811.492 449.694 770.212 449.694 719.29H541.875V811.492Z" fill="#6ED47C"/>
<path d="M180.625 1080.62C80.8685 1080.62 0 999.735 0 899.956H180.625V1080.62Z" fill="#D5E155"/>
<path d="M180.625 992.159C129.715 992.159 88.4443 950.879 88.4443 899.956H180.625V992.159Z" fill="#2D3652"/>
<path d="M722.5 1080.62C622.743 1080.62 541.875 999.735 541.875 899.956H722.5V1080.62Z" fill="#6ED47C"/>
<path d="M722.5 992.159C671.589 992.159 630.319 950.879 630.319 899.956H722.5V992.159Z" fill="#D5E155"/>
<path d="M180.625 357.956V448.29C180.625 498.179 140.191 538.623 90.3125 538.623V448.29C90.3125 398.4 130.747 357.956 180.625 357.956Z" fill="#D5E155"/>
<path d="M270.938 538.623V448.29C270.938 398.4 230.503 357.956 180.625 357.956V448.29C180.625 498.179 221.06 538.623 270.938 538.623Z" fill="#2D3652"/>
<path d="M90.3125 448.29V538.623C90.3125 588.512 49.8782 628.956 0 628.956V538.623C0 488.734 40.4344 448.29 90.3125 448.29Z" fill="#6ED47C"/>
<path d="M541.875 447.667H632.188C682.065 447.667 722.5 407.223 722.5 357.333H632.188C582.31 357.333 541.875 397.777 541.875 447.667Z" fill="#2D3652"/>
<path d="M451.562 538H541.875C591.753 538 632.188 497.556 632.188 447.667H541.875C491.997 447.667 451.562 488.111 451.562 538Z" fill="#6ED47C"/>
<path d="M541.875 -4V176.667C541.875 276.445 622.744 357.333 722.5 357.333V176.667C722.5 76.8881 641.631 -4 541.875 -4Z" fill="#FF743C"/>
<path d="M632.188 177.29V266.856C632.188 316.825 672.622 357.333 722.5 357.333V267.767C722.5 217.796 682.065 177.29 632.188 177.29Z" fill="#2D3652"/>
<path d="M0 357.956V176.978C0 77.0275 80.8685 -4 180.625 -4V176.978C180.625 276.929 99.7565 357.956 0 357.956Z" fill="#2D3652"/>
<path d="M90.3125 176.044V86.477C90.3125 36.5085 130.747 -4 180.625 -4V85.5668C180.625 135.537 140.191 176.044 90.3125 176.044Z" fill="#6ED47C"/>
<path d="M361.25 1080.62V899.956C361.25 800.178 280.381 719.29 180.625 719.29L180.625 899.956C180.625 999.735 261.494 1080.62 361.25 1080.62Z" fill="#F0F1F1"/>
<path d="M270.938 899.333V809.767C270.938 759.798 230.503 719.29 180.625 719.29L180.625 808.856C180.625 858.827 221.06 899.333 270.938 899.333Z" fill="#FFC700"/>
<path d="M361.25 -4V176.667C361.25 276.445 280.381 357.333 180.625 357.333V176.667C180.625 76.8881 261.494 -4 361.25 -4Z" fill="#F0F1F1"/>
<path d="M270.938 177.913V267.479C270.938 317.448 230.503 357.956 180.625 357.956V268.39C180.625 218.419 221.06 177.913 270.938 177.913Z" fill="#D5E155"/>
<path d="M1083.75 176.667H903.125C803.369 176.667 722.5 257.555 722.5 357.333H903.125C1002.88 357.333 1083.75 276.445 1083.75 176.667Z" fill="#2D3652"/>
<path d="M903.125 267H813.269C763.139 267 722.5 307.444 722.5 357.333H812.356C862.488 357.333 903.125 316.889 903.125 267Z" fill="#F0F1F1"/>
<path d="M1083.75 538.623H903.125C803.369 538.623 722.5 619.511 722.5 719.29H903.125C1002.88 719.29 1083.75 638.402 1083.75 538.623Z" fill="#F0F1F1"/>
<path d="M902.502 628.956H812.956C762.999 628.956 722.5 669.4 722.5 719.29H812.046C862.005 719.29 902.502 678.846 902.502 628.956Z" fill="#2D3652"/>
<path d="M541.875 538.623H361.25C261.494 538.623 180.625 619.511 180.625 719.29H361.25C461.006 719.29 541.875 638.402 541.875 538.623Z" fill="#F0F1F1"/>
<path d="M360.627 628.956H271.081C221.124 628.956 180.625 669.4 180.625 719.29H270.171C320.13 719.29 360.627 678.846 360.627 628.956Z" fill="#FF743C"/>
<path d="M722.5 719.29H903.125C1002.88 719.29 1083.75 800.178 1083.75 899.956H903.125C803.369 899.956 722.5 819.068 722.5 719.29Z" fill="#2D3652"/>
<path d="M903.125 809.623H992.981C1043.11 809.623 1083.75 850.067 1083.75 899.956H993.894C943.762 899.956 903.125 859.512 903.125 809.623Z" fill="#6ED47C"/>
<path d="M649.627 490.341C649.627 475.375 661.758 463.241 676.721 463.241C691.684 463.241 703.814 475.375 703.814 490.341C703.814 505.308 691.684 517.441 676.721 517.441C661.758 517.441 649.627 505.308 649.627 490.341Z" fill="#FF743C"/>
<path d="M469.002 403.123C469.002 388.157 481.133 376.023 496.096 376.023C511.059 376.023 523.189 388.157 523.189 403.123C523.189 418.089 511.059 430.223 496.096 430.223C481.133 430.223 469.002 418.089 469.002 403.123Z" fill="#6ED47C"/>
<path d="M157.58 669.139C157.58 684.105 145.45 696.239 130.486 696.239C115.523 696.239 103.393 684.105 103.393 669.139C103.393 654.173 115.523 642.039 130.486 642.039C145.45 642.039 157.58 654.173 157.58 669.139Z" fill="#FF743C"/>
<path d="M72.25 669.139C72.25 684.105 60.1198 696.239 45.1562 696.239C30.1927 696.239 18.0625 684.105 18.0625 669.139C18.0625 654.173 30.1927 642.039 45.1562 642.039C60.1198 642.039 72.25 654.173 72.25 669.139Z" fill="#2D3652"/>
<path d="M157.58 583.79C157.58 598.756 145.45 610.89 130.486 610.89C115.523 610.89 103.393 598.756 103.393 583.79C103.393 568.823 115.523 556.69 130.486 556.69C145.45 556.69 157.58 568.823 157.58 583.79Z" fill="#6ED47C"/>
<path d="M698.209 853.855C698.209 840.436 709.084 829.559 722.5 829.559C735.916 829.559 746.791 840.436 746.791 853.855C746.791 867.274 735.916 878.152 722.5 878.152C709.084 878.152 698.209 867.274 698.209 853.855Z" fill="#FF743C"/>
<path d="M21.1768 402.812C21.1768 389.393 32.0523 378.515 45.4677 378.515C58.8831 378.515 69.7587 389.393 69.7587 402.812C69.7587 416.23 58.8831 427.108 45.4677 427.108C32.0523 427.108 21.1768 416.23 21.1768 402.812Z" fill="#FF743C"/>
<path d="M722.5 447.667C722.5 397.777 762.935 357.333 812.812 357.333C862.69 357.333 903.125 397.777 903.125 447.667C903.125 497.556 862.69 538 812.812 538H722.5V447.667Z" fill="#FF743C"/>
<path d="M722.5 491.898C722.5 466.094 743.414 445.175 769.214 445.175C795.012 445.175 815.927 466.094 815.927 491.898C815.927 517.704 795.012 538.623 769.214 538.623H722.5V491.898Z" fill="#FFC700"/>
<path d="M1083.75 86.3333C1083.75 36.444 1043.32 -4 993.438 -4C943.56 -4 903.125 36.444 903.125 86.3333C903.125 136.223 943.56 176.667 993.438 176.667H1083.75V86.3333Z" fill="#D5E155"/>
<path d="M722.5 86.3333C722.5 136.223 762.935 176.667 812.812 176.667C862.69 176.667 903.125 136.223 903.125 86.3333C903.125 36.444 862.69 -4 812.812 -4H722.5V86.3333Z" fill="#6ED47C"/>
<path d="M722.5 42.725C722.5 68.5292 743.414 89.4483 769.214 89.4483C795.012 89.4483 815.927 68.5292 815.927 42.725C815.927 16.9191 795.012 -4 769.214 -4H722.5V42.725Z" fill="#2D3652"/>
<path d="M361.25 267C361.25 217.111 401.685 176.667 451.562 176.667C501.44 176.667 541.875 217.111 541.875 267C541.875 316.889 501.44 357.333 451.562 357.333C401.685 357.333 361.25 316.889 361.25 267Z" fill="#FFC700"/>
<path d="M401.735 267.311C401.735 239.615 424.184 217.161 451.874 217.161C479.565 217.161 502.013 239.615 502.013 267.311C502.013 295.008 479.565 317.462 451.874 317.462C424.184 317.462 401.735 295.008 401.735 267.311Z" fill="#2D3652"/>
<path d="M903.125 990.29C903.125 940.4 943.56 899.956 993.438 899.956C1043.32 899.956 1083.75 940.4 1083.75 990.29C1083.75 1040.18 1043.32 1080.62 993.438 1080.62C943.56 1080.62 903.125 1040.18 903.125 990.29Z" fill="#FF743C"/>
<path d="M943.61 989.355C943.61 961.658 966.059 939.205 993.749 939.205C1021.44 939.205 1043.89 961.658 1043.89 989.355C1043.89 1017.05 1021.44 1039.51 993.749 1039.51C966.059 1039.51 943.61 1017.05 943.61 989.355Z" fill="#2D3652"/>
<path d="M722.5 628.956C722.5 678.846 682.205 719.29 632.499 719.29C582.793 719.29 542.498 678.846 542.498 628.956C542.498 579.067 582.793 538.623 632.499 538.623H722.5V628.956Z" fill="#D5E155"/>
<path d="M361.25 538.623C411.128 538.623 451.562 498.179 451.562 448.29C451.562 398.4 411.128 357.956 361.25 357.956C311.372 357.956 270.938 398.4 270.938 448.29V538.623H361.25Z" fill="#FF743C"/>
</g>
<defs>
<clipPath id="clip0_22_2159">
<rect width="1445" height="1084" fill="white" transform="translate(0 -4)"/>
</clipPath>
</defs>
</svg>
