<svg width="960" height="1080" viewBox="0 0 960 1080" fill="none" xmlns="http://www.w3.org/2000/svg">
<g clip-path="url(#clip0_22_399)">
<path fill-rule="evenodd" clip-rule="evenodd" d="M450.164 601.128C450.164 642.956 416.31 676.864 374.547 676.864H237.063C195.3 676.864 161.446 642.956 161.446 601.128C161.446 559.299 195.3 525.391 237.063 525.391H374.547C416.31 525.391 450.164 559.299 450.164 601.128ZM374.547 635.553C393.53 635.553 408.918 620.14 408.918 601.128C408.918 582.115 393.53 566.702 374.547 566.702H237.063C218.08 566.702 202.692 582.115 202.692 601.128C202.692 620.14 218.08 635.553 237.063 635.553H374.547Z" fill="#B4D51E"/>
<path fill-rule="evenodd" clip-rule="evenodd" d="M83.6694 1027.55C83.6694 1038.94 92.9052 1048.18 104.298 1048.18H168.247C189.921 1048.18 209.466 1039.06 223.257 1024.46C237.048 1039.06 256.593 1048.18 278.267 1048.18H341.529C383.303 1048.18 417.168 1014.32 417.168 972.542C417.168 961.15 407.931 951.914 396.539 951.914C385.146 951.914 375.91 961.15 375.91 972.542C375.91 991.53 360.517 1006.92 341.529 1006.92H278.267C259.279 1006.92 243.886 991.53 243.886 972.542V833.642C243.886 792.629 210.637 759.379 169.623 759.379V800.637C187.851 800.637 202.629 815.414 202.629 833.642V972.542C202.629 991.53 187.235 1006.92 168.247 1006.92H104.298C92.9052 1006.92 83.6694 1016.16 83.6694 1027.55Z" fill="#B4D51E"/>
<path d="M351.47 861.29C370.477 861.29 385.885 845.877 385.885 826.864C385.885 807.852 370.477 792.439 351.47 792.439C332.462 792.439 317.054 807.852 317.054 826.864C317.054 838.272 307.808 847.52 296.404 847.52C285 847.52 275.755 838.272 275.755 826.864C275.755 785.036 309.653 751.128 351.47 751.128C393.286 751.128 427.184 785.036 427.184 826.864C427.184 868.693 393.286 902.601 351.47 902.601C340.066 902.601 330.82 893.353 330.82 881.946C330.82 870.538 340.066 861.29 351.47 861.29Z" fill="#E5E0D5"/>
<path d="M302.921 580.794C328.305 580.794 348.716 560.384 348.716 535.411C348.716 510.438 328.305 490.027 302.921 490.027C288.897 490.027 276.384 496.246 267.964 506.09C260.552 514.757 247.502 515.787 238.818 508.391C230.132 500.995 229.1 487.974 236.512 479.309C252.478 460.641 276.326 448.77 302.921 448.77C350.957 448.77 390.063 487.468 390.063 535.411C390.063 583.353 350.957 622.051 302.921 622.051C291.503 622.051 282.247 612.815 282.247 601.422C282.247 590.03 291.503 580.794 302.921 580.794Z" fill="#E5E0D5"/>
<path fill-rule="evenodd" clip-rule="evenodd" d="M630.937 49.9516C644.377 36.5443 644.377 14.8065 630.937 1.39906C617.497 -12.0083 595.706 -12.0083 582.266 1.39906C568.826 14.8065 568.826 36.5443 582.266 49.9516C590.33 57.996 590.33 71.0392 582.266 79.0824C574.202 87.1271 561.126 87.1271 553.063 79.0824C523.495 49.5868 523.495 1.76394 553.063 -27.7324C582.631 -57.2287 630.571 -57.2287 660.139 -27.7324C689.708 1.76394 689.708 49.5868 660.139 79.0824C652.075 87.1271 639.001 87.1271 630.937 79.0824C622.873 71.0392 622.873 57.996 630.937 49.9516Z" fill="#463C74"/>
<path fill-rule="evenodd" clip-rule="evenodd" d="M554.015 50.4899C562.068 42.4339 575.125 42.4339 583.179 50.4899C591.233 58.5459 591.233 71.6071 583.179 79.6632C575.125 87.7193 562.068 87.7193 554.015 79.6632C545.961 71.6071 545.961 58.5459 554.015 50.4899Z" fill="#FD6234"/>
<path fill-rule="evenodd" clip-rule="evenodd" d="M169.695 800.637C158.306 800.637 149.073 791.4 149.073 780.008C149.073 768.615 158.306 759.379 169.695 759.379C181.085 759.379 190.318 768.615 190.318 780.008C190.318 791.4 181.085 800.637 169.695 800.637Z" fill="#FD6234"/>
<path fill-rule="evenodd" clip-rule="evenodd" d="M110.72 866.943C110.72 847.93 95.3113 832.517 76.304 832.517C57.2968 832.517 41.8883 847.93 41.8883 866.943C41.8883 885.956 57.2968 901.369 76.304 901.369C95.3113 901.369 110.72 885.956 110.72 866.943ZM76.304 791.206C118.12 791.206 152.019 825.114 152.019 866.943C152.019 908.772 118.12 942.68 76.304 942.68C34.4879 942.68 0.589355 908.772 0.589355 866.943C0.589355 825.114 34.4879 791.206 76.304 791.206Z" fill="#FFC735"/>
<path d="M139.645 689.286C116.162 689.286 97.1248 708.393 97.1248 731.964V811.813C97.1248 823.218 87.9134 832.464 76.5505 832.464C65.1875 832.464 55.9761 823.218 55.9761 811.813V731.964C55.9761 685.584 93.436 647.984 139.645 647.984V689.286Z" fill="#E5E0D5"/>
<path fill-rule="evenodd" clip-rule="evenodd" d="M76.5988 832.464C65.2091 832.464 55.9761 823.227 55.9761 811.835C55.9761 800.442 65.2091 791.206 76.5988 791.206C87.9884 791.206 97.2214 800.442 97.2214 811.835C97.2214 823.227 87.9884 832.464 76.5988 832.464Z" fill="#FD6234"/>
<path fill-rule="evenodd" clip-rule="evenodd" d="M76.0094 887.277C64.6198 887.277 55.3867 878.041 55.3867 866.648C55.3867 855.256 64.6198 846.02 76.0094 846.02C87.399 846.02 96.6321 855.256 96.6321 866.648C96.6321 878.041 87.399 887.277 76.0094 887.277Z" fill="#FD6234"/>
<path fill-rule="evenodd" clip-rule="evenodd" d="M80.1779 475.24C99.2113 474.992 114.44 459.381 114.193 440.369C113.945 421.357 98.3148 406.145 79.2815 406.392C67.8614 406.541 58.4833 397.414 58.3348 386.006C58.1862 374.6 67.3235 365.232 78.7435 365.083C120.617 364.539 155.003 398.005 155.548 439.832C156.092 481.658 122.589 516.004 80.7158 516.548C69.2958 516.697 59.9176 507.57 59.769 496.162C59.6205 484.756 68.7578 475.388 80.1779 475.24Z" fill="#FFC735"/>
<path fill-rule="evenodd" clip-rule="evenodd" d="M180.638 623.26C161.62 623.26 146.203 638.665 146.203 657.667C146.203 676.669 161.62 692.073 180.638 692.073C255.949 692.073 317 753.074 317 828.323C317 839.724 307.75 848.967 296.339 848.967C284.929 848.967 275.678 839.724 275.678 828.323C275.678 775.876 233.128 733.361 180.638 733.361C138.798 733.361 104.881 699.472 104.881 657.667C104.881 615.861 138.798 581.972 180.638 581.972C192.048 581.972 201.299 591.215 201.299 602.616C201.299 614.017 192.048 623.26 180.638 623.26Z" fill="#FFC735"/>
<path fill-rule="evenodd" clip-rule="evenodd" d="M486.052 972.781C486.052 953.832 470.644 938.47 451.637 938.47C432.629 938.47 417.221 953.832 417.221 972.781C417.221 984.15 407.975 993.367 396.571 993.367C385.167 993.367 375.922 984.15 375.922 972.781C375.922 931.092 409.82 897.297 451.637 897.297C493.453 897.297 527.351 931.092 527.351 972.781C527.351 984.15 518.106 993.367 506.702 993.367C495.298 993.367 486.052 984.15 486.052 972.781Z" fill="#463C74"/>
<path d="M450.164 605.548C450.164 657.956 492.636 700.44 545.028 700.44C556.417 700.44 565.651 709.676 565.651 721.069C565.651 732.461 556.417 741.697 545.028 741.697C469.857 741.697 408.918 680.741 408.918 605.548C408.918 594.156 418.152 584.919 429.541 584.919C440.93 584.919 450.164 594.156 450.164 605.548Z" fill="#E5E0D5"/>
<path fill-rule="evenodd" clip-rule="evenodd" d="M870.236 -11.4629C794.157 -11.4629 732.481 50.2302 732.481 126.333C732.481 137.748 723.229 147.002 711.818 147.002C700.406 147.002 691.154 137.748 691.154 126.333C691.154 27.3996 771.332 -52.8016 870.236 -52.8016C881.648 -52.8016 890.9 -43.5476 890.9 -32.1322C890.9 -20.7168 881.648 -11.4629 870.236 -11.4629Z" fill="#FFC735"/>
<path fill-rule="evenodd" clip-rule="evenodd" d="M1067.03 115.743C1067.03 45.7934 1010.34 -10.9118 940.416 -10.9118C929.015 -10.9118 919.771 -20.1572 919.771 -31.562C919.771 -42.9668 929.015 -52.2122 940.416 -52.2122C1033.15 -52.2122 1108.32 22.9838 1108.32 115.743C1108.32 127.147 1099.08 136.393 1087.68 136.393C1076.28 136.393 1067.03 127.147 1067.03 115.743Z" fill="#B4D51E"/>
<path fill-rule="evenodd" clip-rule="evenodd" d="M423.06 507.709C423.06 453.023 378.742 408.692 324.071 408.692C312.682 408.692 303.448 399.455 303.448 388.063C303.448 376.67 312.682 367.434 324.071 367.434C401.52 367.434 464.305 430.238 464.305 507.709C464.305 519.102 455.072 528.338 443.682 528.338C432.293 528.338 423.06 519.102 423.06 507.709Z" fill="#FFC735"/>
<path fill-rule="evenodd" clip-rule="evenodd" d="M59.513 496.19C59.3649 484.798 68.4771 475.442 79.8657 475.295C91.2544 475.146 100.607 484.261 100.755 495.653C100.903 507.045 91.7907 516.4 80.4021 516.548C69.0136 516.697 59.6612 507.582 59.513 496.19Z" fill="#FD6234"/>
<path fill-rule="evenodd" clip-rule="evenodd" d="M296.378 848.967C284.988 848.967 275.755 839.73 275.755 828.338C275.755 816.945 284.988 807.709 296.378 807.709C307.767 807.709 317 816.945 317 828.338C317 839.73 307.767 848.967 296.378 848.967Z" fill="#FD6234"/>
<path fill-rule="evenodd" clip-rule="evenodd" d="M396.545 993.367C385.155 993.367 375.922 984.131 375.922 972.739C375.922 961.346 385.155 952.11 396.545 952.11C407.934 952.11 417.167 961.346 417.167 972.739C417.167 984.131 407.934 993.367 396.545 993.367Z" fill="#FD6234"/>
<path fill-rule="evenodd" clip-rule="evenodd" d="M103.703 1048.18C92.3131 1048.18 83.0801 1038.94 83.0801 1027.55C83.0801 1016.16 92.3131 1006.92 103.703 1006.92C115.092 1006.92 124.325 1016.16 124.325 1027.55C124.325 1038.94 115.092 1048.18 103.703 1048.18Z" fill="#FD6234"/>
<path fill-rule="evenodd" clip-rule="evenodd" d="M296.378 903.78C284.988 903.78 275.755 894.544 275.755 883.151C275.755 871.759 284.988 862.523 296.378 862.523C307.767 862.523 317 871.759 317 883.151C317 894.544 307.767 903.78 296.378 903.78Z" fill="#463C74"/>
<path fill-rule="evenodd" clip-rule="evenodd" d="M296.378 959.183C284.988 959.183 275.755 949.947 275.755 938.554C275.755 927.161 284.988 917.925 296.378 917.925C307.767 917.925 317 927.161 317 938.554C317 949.947 307.767 959.183 296.378 959.183Z" fill="#463C74"/>
<path fill-rule="evenodd" clip-rule="evenodd" d="M451.931 1000.44C440.542 1000.44 431.309 991.204 431.309 979.811C431.309 968.419 440.542 959.183 451.931 959.183C463.32 959.183 472.554 968.419 472.554 979.811C472.554 991.204 463.32 1000.44 451.931 1000.44Z" fill="#FD6234"/>
<path fill-rule="evenodd" clip-rule="evenodd" d="M451.931 1055.25C440.542 1055.25 431.309 1046.02 431.309 1034.62C431.309 1023.23 440.542 1014 451.931 1014C463.32 1014 472.554 1023.23 472.554 1034.62C472.554 1046.02 463.32 1055.25 451.931 1055.25Z" fill="#FD6234"/>
<path fill-rule="evenodd" clip-rule="evenodd" d="M429.541 626.177C418.152 626.177 408.918 616.941 408.918 605.548C408.918 594.156 418.152 584.919 429.541 584.919C440.93 584.919 450.164 594.156 450.164 605.548C450.164 616.941 440.93 626.177 429.541 626.177Z" fill="#FD6234"/>
<path fill-rule="evenodd" clip-rule="evenodd" d="M182.069 623.23C170.68 623.23 161.446 613.994 161.446 602.601C161.446 591.209 170.68 581.972 182.069 581.972C193.458 581.972 202.692 591.209 202.692 602.601C202.692 613.994 193.458 623.23 182.069 623.23Z" fill="#FD6234"/>
<path fill-rule="evenodd" clip-rule="evenodd" d="M578.56 598.77C578.56 579.757 563.151 564.344 544.144 564.344C525.136 564.344 509.729 579.757 509.729 598.77C509.729 617.783 525.136 633.196 544.144 633.196C563.151 633.196 578.56 617.783 578.56 598.77ZM544.144 523.033C585.96 523.033 619.859 556.941 619.859 598.77C619.859 640.599 585.96 674.507 544.144 674.507C502.328 674.507 468.43 640.599 468.43 598.77C468.43 556.941 502.328 523.033 544.144 523.033Z" fill="#FFC735"/>
<path fill-rule="evenodd" clip-rule="evenodd" d="M636.357 185.902C636.357 197.294 645.603 206.53 657.01 206.53C676.02 206.53 691.431 221.924 691.431 240.912V378.436C691.431 397.424 676.02 412.817 657.01 412.817C645.603 412.817 636.357 422.053 636.357 433.446C636.357 444.838 645.603 454.075 657.01 454.075C678.709 454.075 698.277 444.958 712.084 430.35C725.889 444.958 745.459 454.075 767.158 454.075H830.493C872.316 454.075 906.219 420.211 906.219 378.436C906.219 367.044 896.972 357.807 885.567 357.807C874.161 357.807 864.914 367.044 864.914 378.436C864.914 397.424 849.503 412.817 830.493 412.817H767.158C748.147 412.817 732.736 397.424 732.736 378.436V240.912C732.736 199.137 698.832 165.273 657.01 165.273C645.603 165.273 636.357 174.509 636.357 185.902Z" fill="#B4D51E"/>
<path d="M677.602 433.578C677.602 422.18 668.357 412.939 656.953 412.939C637.947 412.939 622.539 397.539 622.539 378.541V240.949C622.539 221.951 637.947 206.551 656.953 206.551C668.357 206.551 677.602 197.31 677.602 185.912C677.602 174.514 668.357 165.273 656.953 165.273C615.138 165.273 581.241 199.154 581.241 240.949V378.541C581.241 380.235 581.296 381.915 581.407 383.58C547.04 394.096 522.048 426.055 522.048 463.848V543.652C522.048 555.05 531.293 564.291 542.697 564.291C554.101 564.291 563.346 555.05 563.346 543.652V463.848C563.346 443.976 576.944 427.276 595.346 422.54C609.081 441.718 631.557 454.217 656.953 454.217C668.357 454.217 677.602 444.976 677.602 433.578Z" fill="#E5E0D5"/>
<path fill-rule="evenodd" clip-rule="evenodd" d="M656.685 454.128C637.676 454.128 622.269 469.541 622.269 488.554C622.269 507.567 637.676 522.98 656.685 522.98C675.692 522.98 691.101 507.567 691.101 488.554C691.101 477.147 700.345 467.899 711.75 467.899C723.154 467.899 732.4 477.147 732.4 488.554C732.4 530.383 698.5 564.291 656.685 564.291C614.868 564.291 580.97 530.383 580.97 488.554C580.97 446.725 614.868 412.817 656.685 412.817C668.089 412.817 677.334 422.065 677.334 433.473C677.334 444.88 668.089 454.128 656.685 454.128Z" fill="#463C74"/>
<path fill-rule="evenodd" clip-rule="evenodd" d="M656.98 454.075C645.589 454.075 636.357 444.838 636.357 433.446C636.357 422.053 645.589 412.817 656.98 412.817C668.369 412.817 677.602 422.053 677.602 433.446C677.602 444.838 668.369 454.075 656.98 454.075Z" fill="#FD6234"/>
<path fill-rule="evenodd" clip-rule="evenodd" d="M656.98 206.53C645.589 206.53 636.357 197.294 636.357 185.902C636.357 174.509 645.589 165.273 656.98 165.273C668.369 165.273 677.602 174.509 677.602 185.902C677.602 197.294 668.369 206.53 656.98 206.53Z" fill="#FD6234"/>
<path fill-rule="evenodd" clip-rule="evenodd" d="M542.671 564.291C531.282 564.291 522.048 555.055 522.048 543.662C522.048 532.27 531.282 523.033 542.671 523.033C554.06 523.033 563.294 532.27 563.294 543.662C563.294 555.055 554.06 564.291 542.671 564.291Z" fill="#FD6234"/>
<path fill-rule="evenodd" clip-rule="evenodd" d="M543.85 619.104C532.46 619.104 523.227 609.868 523.227 598.475C523.227 587.083 532.46 577.847 543.85 577.847C555.239 577.847 564.472 587.083 564.472 598.475C564.472 609.868 555.239 619.104 543.85 619.104Z" fill="#463C74"/>
<path fill-rule="evenodd" clip-rule="evenodd" d="M636.303 336.828C636.303 317.879 620.895 302.517 601.888 302.517C582.879 302.517 567.472 317.879 567.472 336.828C567.472 348.197 558.226 357.415 546.822 357.415C535.417 357.415 526.173 348.197 526.173 336.828C526.173 295.139 560.071 261.344 601.888 261.344C643.703 261.344 677.602 295.139 677.602 336.828C677.602 348.197 668.357 357.415 656.953 357.415C645.547 357.415 636.303 348.197 636.303 336.828Z" fill="#FFC735"/>
<path fill-rule="evenodd" clip-rule="evenodd" d="M975.105 379.853C975.105 360.904 959.696 345.543 940.689 345.543C921.682 345.543 906.273 360.904 906.273 379.853C906.273 391.223 897.028 400.44 885.624 400.44C874.22 400.44 864.974 391.223 864.974 379.853C864.974 338.164 898.872 304.369 940.689 304.369C982.505 304.369 1016.4 338.164 1016.4 379.853C1016.4 391.223 1007.16 400.44 995.754 400.44C984.35 400.44 975.105 391.223 975.105 379.853Z" fill="#463C74"/>
<path d="M456.056 1094.15C508.448 1094.15 550.92 1051.67 550.92 999.261C550.92 987.869 560.154 978.633 571.543 978.633C582.932 978.633 592.165 987.869 592.165 999.261C592.165 1074.45 531.227 1135.41 456.056 1135.41C444.667 1135.41 435.433 1126.17 435.433 1114.78C435.433 1103.39 444.667 1094.15 456.056 1094.15Z" fill="#E5E0D5"/>
<path fill-rule="evenodd" clip-rule="evenodd" d="M665.252 606.68C726.066 606.68 775.366 557.366 775.366 496.534C775.366 485.129 784.61 475.882 796.012 475.882C807.414 475.882 816.658 485.129 816.658 496.534C816.658 580.177 748.871 647.984 665.252 647.984C653.85 647.984 644.606 638.738 644.606 627.332C644.606 615.926 653.85 606.68 665.252 606.68Z" fill="#B4D51E"/>
<path fill-rule="evenodd" clip-rule="evenodd" d="M656.98 357.415C645.589 357.415 636.357 348.178 636.357 336.786C636.357 325.393 645.589 316.157 656.98 316.157C668.369 316.157 677.602 325.393 677.602 336.786C677.602 348.178 668.369 357.415 656.98 357.415Z" fill="#FD6234"/>
<path fill-rule="evenodd" clip-rule="evenodd" d="M801.339 227.159C789.949 227.159 780.716 217.923 780.716 206.53C780.716 195.138 789.949 185.902 801.339 185.902C812.728 185.902 821.961 195.138 821.961 206.53C821.961 217.923 812.728 227.159 801.339 227.159Z" fill="#FD6234"/>
<path d="M867.341 926.177C878.736 926.177 887.974 935.436 887.974 946.858C887.974 965.895 903.37 981.327 922.362 981.327H1059.91C1078.91 981.327 1094.3 965.895 1094.3 946.858C1094.3 935.436 1103.54 926.177 1114.94 926.177C1126.33 926.177 1135.57 935.436 1135.57 946.858C1135.57 972.241 1123.13 994.711 1104.02 1008.47C1108.87 1026.26 1125.2 1039.23 1145.2 1039.23H1224.98C1236.37 1039.23 1245.61 1048.49 1245.61 1059.92C1245.61 1071.34 1236.37 1080.6 1224.98 1080.6H1145.2C1107.88 1080.6 1075.82 1056.62 1065.1 1022.51C1063.39 1022.63 1061.66 1022.69 1059.91 1022.69H922.362C880.579 1022.69 846.708 988.739 846.708 946.858C846.708 935.436 855.946 926.177 867.341 926.177Z" fill="#E5E0D5"/>
<path fill-rule="evenodd" clip-rule="evenodd" d="M697.93 679.811C739.747 679.811 773.645 713.675 773.645 755.45V892.974C773.645 934.749 739.747 968.613 697.93 968.613C656.114 968.613 622.216 934.749 622.216 892.974V755.45C622.216 713.675 656.114 679.811 697.93 679.811ZM732.346 755.45C732.346 736.462 716.938 721.069 697.93 721.069C678.923 721.069 663.515 736.462 663.515 755.45V892.974C663.515 911.962 678.923 927.356 697.93 927.356C716.938 927.356 732.346 911.962 732.346 892.974V755.45Z" fill="#B4D51E"/>
<path fill-rule="evenodd" clip-rule="evenodd" d="M867.331 967.434C878.72 967.434 887.954 958.185 887.954 946.775C887.954 927.76 903.342 912.344 922.325 912.344H1059.81C1078.79 912.344 1094.18 927.76 1094.18 946.775C1094.18 958.185 1103.41 967.434 1114.8 967.434C1126.19 967.434 1135.43 958.185 1135.43 946.775C1135.43 925.07 1126.31 905.496 1111.71 891.685C1126.31 877.874 1135.43 858.301 1135.43 836.595V773.242C1135.43 731.407 1101.57 697.493 1059.81 697.493C1048.42 697.493 1039.19 706.743 1039.19 718.152C1039.19 729.561 1048.42 738.811 1059.81 738.811C1078.79 738.811 1094.18 754.226 1094.18 773.242V836.595C1094.18 855.611 1078.79 871.027 1059.81 871.027H922.326C880.564 871.027 846.708 904.94 846.708 946.775C846.708 958.185 855.942 967.434 867.331 967.434Z" fill="#B4D51E"/>
<path fill-rule="evenodd" clip-rule="evenodd" d="M959.785 777.356C959.785 758.343 944.376 742.93 925.369 742.93C906.362 742.93 890.953 758.343 890.953 777.356C890.953 796.368 906.362 811.781 925.369 811.781C936.773 811.781 946.018 821.029 946.018 832.437C946.018 843.844 936.773 853.092 925.369 853.092C883.552 853.092 849.654 819.184 849.654 777.356C849.654 735.527 883.552 701.619 925.369 701.619C967.185 701.619 1001.08 735.527 1001.08 777.356C1001.08 788.763 991.838 798.011 980.434 798.011C969.03 798.011 959.785 788.763 959.785 777.356Z" fill="#463C74"/>
<path fill-rule="evenodd" clip-rule="evenodd" d="M677.602 888.984C677.602 863.592 657.198 843.175 632.232 843.175C607.267 843.175 586.863 863.592 586.863 888.984C586.863 903.011 593.08 915.528 602.921 923.951C611.585 931.365 612.615 944.418 605.221 953.105C597.827 961.793 584.81 962.826 576.147 955.411C557.485 939.441 545.617 915.586 545.617 888.984C545.617 840.933 584.304 801.815 632.232 801.815C680.161 801.815 718.848 840.933 718.848 888.984C718.848 900.404 709.614 909.663 698.225 909.663C686.836 909.663 677.602 900.404 677.602 888.984Z" fill="#FD6234"/>
<path fill-rule="evenodd" clip-rule="evenodd" d="M887.954 946.805C887.954 958.198 878.72 967.434 867.331 967.434C855.942 967.434 846.708 958.198 846.708 946.805C846.708 935.413 855.942 926.177 867.331 926.177C878.72 926.177 887.954 935.413 887.954 946.805Z" fill="#FD6234"/>
<path fill-rule="evenodd" clip-rule="evenodd" d="M1018.8 967.488C999.859 967.488 984.502 982.901 984.502 1001.91C984.502 1020.93 999.859 1036.34 1018.8 1036.34C1030.17 1036.34 1039.38 1045.59 1039.38 1056.99C1039.38 1068.4 1030.17 1077.65 1018.8 1077.65C977.125 1077.65 943.34 1043.74 943.34 1001.91C943.34 960.085 977.125 926.177 1018.8 926.177C1030.17 926.177 1039.38 935.425 1039.38 946.832C1039.38 958.24 1030.17 967.488 1018.8 967.488Z" fill="#FFC735"/>
<path fill-rule="evenodd" clip-rule="evenodd" d="M925.059 853.169C872.628 853.169 830.125 895.732 830.125 948.237C830.125 990.089 796.246 1024.02 754.453 1024.02C712.66 1024.02 678.781 990.089 678.781 948.237C678.781 936.823 688.021 927.57 699.419 927.57C710.816 927.57 720.056 936.823 720.056 948.237C720.056 967.26 735.456 982.682 754.453 982.682C773.449 982.682 788.849 967.26 788.849 948.237C788.849 872.904 849.833 811.835 925.059 811.835C936.457 811.835 945.697 821.088 945.697 832.502C945.697 843.916 936.457 853.169 925.059 853.169Z" fill="#FFC735"/>
<path d="M702.35 679.811C788.91 679.811 859.082 609.619 859.082 523.033C859.082 511.641 868.315 502.405 879.705 502.405C891.094 502.405 900.327 511.641 900.327 523.033C900.327 632.405 811.69 721.069 702.35 721.069C690.96 721.069 681.727 711.833 681.727 700.44C681.727 689.048 690.96 679.811 702.35 679.811Z" fill="#E5E0D5"/>
<path fill-rule="evenodd" clip-rule="evenodd" d="M43.0129 999.261C43.0129 1051.67 85.4849 1094.15 137.877 1094.15C149.266 1094.15 158.5 1103.39 158.5 1114.78C158.5 1126.17 149.266 1135.41 137.877 1135.41C62.7059 1135.41 1.76758 1074.45 1.76758 999.261C1.76758 987.869 11.0007 978.633 22.3903 978.633C33.7797 978.633 43.0129 987.869 43.0129 999.261Z" fill="#B4D51E"/>
<path fill-rule="evenodd" clip-rule="evenodd" d="M586.895 789.963C552.022 789.963 523.751 818.241 523.751 853.125C523.751 864.499 514.532 873.721 503.161 873.721C491.79 873.721 482.571 864.499 482.571 853.125C482.571 795.491 529.278 748.77 586.895 748.77C598.266 748.77 607.485 757.992 607.485 769.366C607.485 780.741 598.266 789.963 586.895 789.963Z" fill="#FFC735"/>
<path fill-rule="evenodd" clip-rule="evenodd" d="M946.286 832.464C946.286 843.856 937.053 853.092 925.664 853.092C914.274 853.092 905.041 843.856 905.041 832.464C905.041 821.071 914.274 811.835 925.664 811.835C937.053 811.835 946.286 821.071 946.286 832.464Z" fill="#FD6234"/>
<path fill-rule="evenodd" clip-rule="evenodd" d="M945.697 663.308C945.697 674.701 936.464 683.937 925.074 683.937C913.685 683.937 904.452 674.701 904.452 663.308C904.452 651.916 913.685 642.68 925.074 642.68C936.464 642.68 945.697 651.916 945.697 663.308Z" fill="#FD6234"/>
<path fill-rule="evenodd" clip-rule="evenodd" d="M945.697 607.906C945.697 619.298 936.464 628.534 925.074 628.534C913.685 628.534 904.452 619.298 904.452 607.906C904.452 596.513 913.685 587.277 925.074 587.277C936.464 587.277 945.697 596.513 945.697 607.906Z" fill="#FD6234"/>
<path fill-rule="evenodd" clip-rule="evenodd" d="M906.219 380.401C906.219 391.793 896.986 401.029 885.597 401.029C874.208 401.029 864.974 391.793 864.974 380.401C864.974 369.008 874.208 359.772 885.597 359.772C896.986 359.772 906.219 369.008 906.219 380.401Z" fill="#FD6234"/>
<path fill-rule="evenodd" clip-rule="evenodd" d="M433.96 60.3079C414.953 60.3079 399.545 44.8949 399.545 25.8821C399.545 6.86931 414.953 -8.54367 433.96 -8.54367C452.967 -8.54367 468.376 6.86931 468.376 25.8821C468.376 44.8949 452.967 60.3079 433.96 60.3079ZM358.246 25.8821C358.246 67.7104 392.144 101.619 433.96 101.619C475.777 101.619 509.675 67.7104 509.675 25.8821C509.675 -15.946 475.777 -49.8546 433.96 -49.8546C392.144 -49.8546 358.246 -15.9462 358.246 25.8821Z" fill="#FFC735"/>
<path fill-rule="evenodd" clip-rule="evenodd" d="M21.212 118.122C32.6017 118.122 41.8347 127.369 41.8347 138.774C41.8347 157.784 57.2232 173.194 76.2058 173.194H213.69C232.673 173.194 248.061 157.784 248.061 138.774C248.061 127.369 257.295 118.122 268.684 118.122C280.073 118.122 289.307 127.369 289.307 138.774C289.307 180.596 255.453 214.499 213.69 214.499H78.9812C78.9727 214.499 78.9641 214.499 78.9555 214.499C59.9729 214.499 44.5844 229.91 44.5844 248.919V386.601C44.5844 405.611 59.9729 421.022 78.9555 421.022C90.3452 421.022 99.5782 430.268 99.5782 441.674C99.5782 453.079 90.3452 462.326 78.9555 462.326C37.1936 462.326 3.33903 428.423 3.33903 386.601V248.919C3.33903 227.893 11.8971 208.866 25.7153 195.145C10.2916 181.282 0.589355 161.162 0.589355 138.774C0.589355 127.369 9.82245 118.122 21.212 118.122Z" fill="#B4D51E"/>
<path d="M219.111 63.4994C230.004 29.8721 261.663 5.54813 299.02 5.54813H378.846C390.248 5.54813 399.491 14.7623 399.491 26.1286C399.491 37.4948 390.248 46.7091 378.846 46.7091H299.02C279.506 46.7091 263.052 59.7689 257.973 77.599C276.956 91.3122 289.307 113.612 289.307 138.793C289.307 150.162 280.073 159.379 268.684 159.379C257.295 159.379 248.061 150.162 248.061 138.793C248.061 119.843 232.673 104.482 213.69 104.482H76.2058C57.2232 104.482 41.8347 119.843 41.8347 138.793C41.8347 150.162 32.6017 159.379 21.212 159.379C9.82244 159.379 0.589355 150.162 0.589355 138.793C0.589355 97.1034 34.444 63.3084 76.2058 63.3084H213.69C215.513 63.3084 217.321 63.3728 219.111 63.4994Z" fill="#E5E0D5"/>
<path fill-rule="evenodd" clip-rule="evenodd" d="M289.36 139.045C289.36 120.033 304.769 104.619 323.776 104.619C342.783 104.619 358.192 120.033 358.192 139.045C358.192 158.058 342.783 173.471 323.776 173.471C312.372 173.471 303.127 182.719 303.127 194.126C303.127 205.534 312.372 214.782 323.776 214.782C365.593 214.782 399.491 180.874 399.491 139.045C399.491 97.2165 365.593 63.3084 323.776 63.3084C281.96 63.3084 248.062 97.2165 248.062 139.045C248.062 150.453 257.307 159.701 268.711 159.701C280.115 159.701 289.36 150.453 289.36 139.045Z" fill="#463C74"/>
<path fill-rule="evenodd" clip-rule="evenodd" d="M289.307 139.34C289.307 127.947 280.073 118.711 268.684 118.711C257.295 118.711 248.062 127.947 248.062 139.34C248.062 150.732 257.295 159.969 268.684 159.969C280.073 159.969 289.307 150.732 289.307 139.34Z" fill="#FD6234"/>
<path fill-rule="evenodd" clip-rule="evenodd" d="M41.8347 138.75C41.8347 127.358 32.6012 118.122 21.212 118.122C9.82282 118.122 0.589355 127.358 0.589355 138.75C0.589355 150.143 9.82282 159.379 21.212 159.379C32.6012 159.379 41.8347 150.143 41.8347 138.75Z" fill="#463C74"/>
<path fill-rule="evenodd" clip-rule="evenodd" d="M268.684 264.291C268.684 252.898 259.451 243.662 248.062 243.662C236.672 243.662 227.439 252.898 227.439 264.291C227.439 275.683 236.672 284.919 248.062 284.919C259.451 284.919 268.684 275.683 268.684 264.291Z" fill="#463C74"/>
<path fill-rule="evenodd" clip-rule="evenodd" d="M268.684 319.104C268.684 307.712 259.451 298.475 248.062 298.475C236.672 298.475 227.439 307.712 227.439 319.104C227.439 330.497 236.672 339.733 248.062 339.733C259.451 339.733 268.684 330.497 268.684 319.104Z" fill="#463C74"/>
<path fill-rule="evenodd" clip-rule="evenodd" d="M447.807 342.68C447.807 331.287 438.573 322.051 427.184 322.051C415.795 322.051 406.562 331.287 406.562 342.68C406.562 354.072 415.795 363.308 427.184 363.308C438.573 363.308 447.807 354.072 447.807 342.68Z" fill="#463C74"/>
<path fill-rule="evenodd" clip-rule="evenodd" d="M504.372 339.733C504.372 328.34 495.138 319.104 483.749 319.104C472.36 319.104 463.126 328.34 463.126 339.733C463.126 351.125 472.36 360.361 483.749 360.361C495.138 360.361 504.372 351.125 504.372 339.733Z" fill="#463C74"/>
<path fill-rule="evenodd" clip-rule="evenodd" d="M504.372 397.493C504.372 386.101 495.138 376.864 483.749 376.864C472.36 376.864 463.126 386.101 463.126 397.493C463.126 408.886 472.36 418.122 483.749 418.122C495.138 418.122 504.372 408.886 504.372 397.493Z" fill="#463C74"/>
<path fill-rule="evenodd" clip-rule="evenodd" d="M399.491 26.1768C399.491 14.784 390.258 5.54813 378.868 5.54813C367.479 5.54813 358.246 14.784 358.246 26.1768C358.246 37.5697 367.479 46.8055 378.868 46.8055C390.258 46.8055 399.491 37.5697 399.491 26.1768Z" fill="#FD6234"/>
<path fill-rule="evenodd" clip-rule="evenodd" d="M454.878 26.1768C454.878 14.7839 445.644 5.54813 434.255 5.54813C422.866 5.54813 413.632 14.7839 413.632 26.1768C413.632 37.5697 422.866 46.8055 434.255 46.8055C445.644 46.8055 454.878 37.5697 454.878 26.1768Z" fill="#FD6234"/>
<path fill-rule="evenodd" clip-rule="evenodd" d="M199.787 118.068C180.844 118.068 165.486 102.655 165.486 83.6424C165.486 64.6296 180.844 49.2166 199.787 49.2166C211.153 49.2166 220.368 39.9689 220.368 28.5612C220.368 17.1534 211.153 7.90569 199.787 7.90569C158.11 7.90569 124.325 41.8141 124.325 83.6424C124.325 125.471 158.11 159.379 199.787 159.379C211.153 159.379 220.368 150.131 220.368 138.724C220.368 127.316 211.153 118.068 199.787 118.068Z" fill="#FFC735"/>
<path fill-rule="evenodd" clip-rule="evenodd" d="M97.2213 326.177C149.614 326.177 192.086 368.661 192.086 421.069C192.086 432.461 201.319 441.697 212.708 441.697C224.098 441.697 233.331 432.461 233.331 421.069C233.331 345.876 172.392 284.919 97.2213 284.919C85.8317 284.919 76.5986 294.156 76.5986 305.548C76.5986 316.941 85.8317 326.177 97.2213 326.177Z" fill="#FD6234"/>
<path fill-rule="evenodd" clip-rule="evenodd" d="M100.757 441.697C100.757 430.305 91.5235 421.069 80.1339 421.069C68.7443 421.069 59.5112 430.305 59.5112 441.697C59.5112 453.09 68.7443 462.326 80.1339 462.326C91.5235 462.326 100.757 453.09 100.757 441.697Z" fill="#FD6234"/>
<path fill-rule="evenodd" clip-rule="evenodd" d="M1001.08 832.464C1001.08 843.856 991.85 853.092 980.461 853.092C969.072 853.092 959.838 843.856 959.838 832.464C959.838 821.071 969.072 811.835 980.461 811.835C991.85 811.835 1001.08 821.071 1001.08 832.464Z" fill="#463C74"/>
<path fill-rule="evenodd" clip-rule="evenodd" d="M718.848 700.44C718.848 711.833 709.614 721.069 698.225 721.069C686.836 721.069 677.603 711.833 677.603 700.44C677.603 689.048 686.836 679.811 698.225 679.811C709.614 679.811 718.848 689.048 718.848 700.44Z" fill="#FD6234"/>
<path fill-rule="evenodd" clip-rule="evenodd" d="M720.026 947.984C720.026 959.377 710.793 968.613 699.403 968.613C688.014 968.613 678.781 959.377 678.781 947.984C678.781 936.592 688.014 927.356 699.403 927.356C710.793 927.356 720.026 936.592 720.026 947.984Z" fill="#FD6234"/>
<path fill-rule="evenodd" clip-rule="evenodd" d="M949.89 133.446C926.584 133.446 907.466 152.47 907.466 176.213C907.466 199.956 926.584 218.979 949.89 218.979C1034.58 218.979 1103.02 287.944 1103.02 372.739C1103.02 384.131 1093.77 393.367 1082.36 393.367C1070.95 393.367 1061.7 384.131 1061.7 372.739C1061.7 310.483 1011.52 260.237 949.89 260.237C903.521 260.237 866.152 222.494 866.152 176.213C866.152 129.931 903.521 92.1886 949.89 92.1886C961.3 92.1886 970.547 101.425 970.547 112.817C970.547 124.21 961.3 133.446 949.89 133.446Z" fill="#FFC735"/>
<path fill-rule="evenodd" clip-rule="evenodd" d="M1061.18 372.785C1061.18 435.409 1011.12 485.809 949.822 485.809C938.433 485.809 929.199 495.066 929.199 506.484C929.199 517.902 938.433 527.159 949.822 527.159C1034.31 527.159 1102.43 457.841 1102.43 372.785C1102.43 361.367 1093.2 352.11 1081.81 352.11C1070.42 352.11 1061.18 361.367 1061.18 372.785Z" fill="#FD6234"/>
<path fill-rule="evenodd" clip-rule="evenodd" d="M801.339 247.788C812.728 247.788 821.961 257.038 821.961 268.448V357.973C821.961 369.383 812.728 378.633 801.339 378.633C789.949 378.633 780.716 369.383 780.716 357.973V268.448C780.716 257.038 789.949 247.788 801.339 247.788Z" fill="#B4D51E"/>
<path fill-rule="evenodd" clip-rule="evenodd" d="M463.086 131.698C463.086 208.486 400.856 270.734 324.091 270.734C312.691 270.734 303.448 279.979 303.448 291.383C303.448 302.786 312.691 312.031 324.091 312.031C423.657 312.031 504.372 231.293 504.372 131.698C504.372 120.294 495.13 111.049 483.729 111.049C472.329 111.049 463.086 120.294 463.086 131.698Z" fill="#B4D51E"/>
<path d="M1142.5 175.882C1142.5 187.275 1133.25 196.511 1121.84 196.511H946.913C935.503 196.511 926.253 187.275 926.253 175.882C926.253 164.49 935.503 155.253 946.913 155.253H1121.84C1133.25 155.253 1142.5 164.49 1142.5 175.882Z" fill="#E5E0D5"/>
<path fill-rule="evenodd" clip-rule="evenodd" d="M504.372 131.678C504.372 120.285 495.138 111.049 483.749 111.049C472.36 111.049 463.126 120.285 463.126 131.678C463.126 143.07 472.36 152.306 483.749 152.306C495.138 152.306 504.372 143.07 504.372 131.678Z" fill="#FD6234"/>
<path fill-rule="evenodd" clip-rule="evenodd" d="M960.869 69.6434C952.815 77.6998 939.756 77.6998 931.704 69.6434C923.65 61.5874 923.65 48.5262 931.704 40.4703C939.756 32.4143 952.815 32.4143 960.869 40.4703C968.922 48.5262 968.922 61.5874 960.869 69.6434Z" fill="#463C74"/>
<path fill-rule="evenodd" clip-rule="evenodd" d="M0.589355 577.847C0.589355 566.454 9.82244 557.218 21.212 557.218H87.2046C98.5942 557.218 107.827 566.454 107.827 577.847C107.827 589.239 98.5942 598.475 87.2046 598.475H21.212C9.82244 598.475 0.589355 589.239 0.589355 577.847Z" fill="#463C74"/>
<path fill-rule="evenodd" clip-rule="evenodd" d="M656.98 1132.46C645.59 1132.46 636.357 1123.25 636.357 1111.88V1052.86C636.357 1041.49 645.59 1032.27 656.98 1032.27C668.369 1032.27 677.602 1041.49 677.602 1052.86V1111.88C677.602 1123.25 668.369 1132.46 656.98 1132.46Z" fill="#B4D51E"/>
<path fill-rule="evenodd" clip-rule="evenodd" d="M885.629 78.5678C850.755 78.5678 822.486 106.847 822.486 141.73C822.486 153.104 813.267 162.326 801.895 162.326C790.523 162.326 781.305 153.104 781.305 141.73C781.305 84.0959 828.012 37.3752 885.629 37.3752C897.001 37.3752 906.22 46.5965 906.22 57.9715C906.22 69.3466 897.001 78.5678 885.629 78.5678Z" fill="#FD6234"/>
<path fill-rule="evenodd" clip-rule="evenodd" d="M787.345 127.111C795.398 119.055 808.456 119.055 816.51 127.111C824.564 135.167 824.564 148.228 816.51 156.284C808.456 164.34 795.398 164.34 787.345 156.284C779.291 148.228 779.291 135.167 787.345 127.111Z" fill="#463C74"/>
</g>
<defs>
<clipPath id="clip0_22_399">
<rect width="1586" height="1199" fill="white" transform="translate(0 -63)"/>
</clipPath>
</defs>
</svg>
